<svg width="30" height="23" viewBox="0 0 30 23" fill="none" xmlns="http://www.w3.org/2000/svg">
<path d="M21.6829 0C19.1195 0 16.6592 1.01526 15.0534 2.61962C13.4476 1.01526 10.9874 0 8.42397 0C3.88647 0 0.321289 3.03324 0.321289 6.89373C0.321289 11.6316 5.33022 15.4921 12.9173 21.358L15.0534 23L17.1896 21.3455C24.7766 15.4921 29.7856 11.6316 29.7856 6.89373C29.7856 3.03324 26.2204 0 21.6829 0ZM15.2008 19.4905L15.0534 19.6158L14.9061 19.4905C7.89361 14.0883 3.26772 10.5161 3.26772 6.89373C3.26772 4.38692 5.47754 2.50681 8.42397 2.50681C10.6927 2.50681 12.9025 3.74768 13.6833 5.46485H16.4383C17.2043 3.74768 19.4141 2.50681 21.6829 2.50681C24.6293 2.50681 26.8391 4.38692 26.8391 6.89373C26.8391 10.5161 22.2133 14.0883 15.2008 19.4905Z" fill="#3E2F88"/>
</svg>
